<svg width="421" height="84" fill="none" xmlns="http://www.w3.org/2000/svg"><rect y="29" width="421" height="55" rx="15" fill="#fff"/><path d="M252 42a41.998 41.998 0 0 0-71.698-29.698A41.998 41.998 0 0 0 168 42h84Z" fill="#fff"/><path d="M248.928 30.152 245.365 21l2.497 3.104.833 1.035.832 1.034 1.269 1.053 1.279.802 1.715.82 1.289.553 1.726.57 2.598.607.436.017-10.911-.443ZM171.5 30l4.5-9-3 3-1 1-1 1-1.5 1-1.5.75-2 .75-1.5.5-2 .5-3 .5h-.5 12.5Z" stroke="#fff"/><path d="m170.5 30 4.5-9-3 3-1 1-1 1-1.5 1-1.5.75-2 .75-1.5.5-2 .5-3 .5h-.5 12.5Z" stroke="#fff"/><path d="m170.5 30 4.5-9-3 3-1 1-1 1-1.5 1-1.5.75-2 .75-1.5.5-2 .5-3 .5h-.5 12.5Z" stroke="#fff"/><path d="m172.444 26.188-2.492 6.838-4.117-3.79 6.609-3.048Zm76.076-.165 6.387 3.487-4.364 3.503-2.023-6.99Z" fill="#fff"/></svg>